<svg xmlns="http://www.w3.org/2000/svg" viewBox="-684 -1295 30 30">
  <defs>
    <style>
      .cls-1 {
        fill: #ff7473;
      }

      .cls-2 {
        fill: #fff;
        fill-rule: evenodd;
      }
    </style>
  </defs>
  <g id="approval" transform="translate(-769 -1537)">
    <circle id="타원_107" data-name="타원 107" class="cls-1" cx="15" cy="15" r="15" transform="translate(85 242)"/>
    <path id="패스_423" data-name="패스 423" class="cls-2" d="M12.622,1.578h-3.3a2.357,2.357,0,0,0-4.449,0h-3.3A1.582,1.582,0,0,0,0,3.156V14.2a1.582,1.582,0,0,0,1.578,1.578H12.622A1.582,1.582,0,0,0,14.2,14.2V3.156A1.582,1.582,0,0,0,12.622,1.578ZM8.914,4.4a.364.364,0,0,1,.516,0l.856.856a.363.363,0,0,1,0,.515l-.717.717L8.2,5.112ZM7.1,1.578a.789.789,0,1,1-.789.789A.791.791,0,0,1,7.1,1.578ZM4.174,9.135,7.831,5.478,9.2,6.85,5.546,10.507H4.174Zm7.315,3.932H2.711V11.6h8.777Z" transform="translate(93 249)"/>
  </g>
</svg>
