<svg xmlns="http://www.w3.org/2000/svg" viewBox="5 1230 16 17.152">
  <defs>
    <style>
      .cls-1 {
        fill: #62a8ea;
      }
    </style>
  </defs>
  <g id="chat_ico_file" transform="translate(-71 639)">
    <path id="합치기_12" data-name="합치기 12" class="cls-1" d="M-828.479-1006.629a5.239,5.239,0,0,1,0-7.452l3.841-3.842c.048-.024.1-.048.147-.07l.007-.007,3.073-3.073a3.9,3.9,0,0,1,2.766-1.152,3.9,3.9,0,0,1,2.766,1.152,3.772,3.772,0,0,1,1.153,2.766,3.772,3.772,0,0,1-1.153,2.767l-2.971,2.97-3.713,3.714a2.5,2.5,0,0,1-1.844.768,2.685,2.685,0,0,1-1.844-.768,2.741,2.741,0,0,1,0-3.765l5.148-5.148a.464.464,0,0,1,.461-.23.7.7,0,0,1,.538.23.743.743,0,0,1,0,1.076l-5.148,5.148a1.114,1.114,0,0,0,0,1.613,1.274,1.274,0,0,0,1.614,0l3.611-3.611.23-.23,0,0,2.841-2.84a2.387,2.387,0,0,0,.691-1.691,2.385,2.385,0,0,0-.691-1.69,2.412,2.412,0,0,0-3.38,0l-3.073,3.073a.832.832,0,0,1-.082.072.835.835,0,0,1-.072.082l-3.841,3.841a3.757,3.757,0,0,0,0,5.3,3.756,3.756,0,0,0,5.3,0l6.762-6.762a.743.743,0,0,1,1.076,0,.743.743,0,0,1,0,1.076l-6.762,6.684a5.251,5.251,0,0,1-3.726,1.556A5.253,5.253,0,0,1-828.479-1006.629Z" transform="translate(906.035 1613.226)"/>
  </g>
</svg>
