<svg xmlns="http://www.w3.org/2000/svg" viewBox="990 269 16.558 15">
  <defs>
    <style>
      .cls-1 {
        fill: #62a8ea;
      }
    </style>
  </defs>
  <g id="folder_open" transform="translate(899 -1)">
    <rect id="사각형_90" data-name="사각형 90" class="cls-1" width="14.525" height="1.364" transform="translate(91.968 275.455)"/>
    <path id="패스_250" data-name="패스 250" class="cls-1" d="M6.488,1.461a.766.766,0,0,1,.775.779V3.7h6.972a.836.836,0,0,1,.775.779v8.377a.836.836,0,0,1-.775.779H2.227a.836.836,0,0,1-.775-.779V2.24a.836.836,0,0,1,.775-.779H6.488M6.488,0H2.227A2.2,2.2,0,0,0,0,2.24V12.76A2.259,2.259,0,0,0,2.227,15h12.1a2.259,2.259,0,0,0,2.227-2.24V4.383a2.259,2.259,0,0,0-2.227-2.24H8.715A2.177,2.177,0,0,0,6.488,0Z" transform="translate(91 270)"/>
  </g>
</svg>
