<svg xmlns="http://www.w3.org/2000/svg" viewBox="1705 166 8 9">
  <defs>
    <style>
      .cls-1 {
        fill: #777;
      }
    </style>
  </defs>
  <g id="user" transform="translate(1705 166)">
    <path id="패스_95" data-name="패스 95" class="cls-1" d="M6.531,6.738c-1.174-.446-1.55-.824-1.55-1.629,0-.484.36-.325.516-1.212.065-.368.382-.006.443-.846,0-.336-.172-.417-.172-.417s.088-.5.122-.876A1.706,1.706,0,0,0,4,0,1.7,1.7,0,0,0,2.1,1.758c.034.381.122.876.122.876s-.172.082-.172.417c.061.839.378.478.443.846.156.887.516.729.516,1.212,0,.807-.376,1.182-1.55,1.629S0,7.642,0,7.954V9H8V7.954C8,7.642,7.71,7.186,6.531,6.738Z"/>
  </g>
</svg>
