<svg xmlns="http://www.w3.org/2000/svg" viewBox="1302.489 194.5 17.023 16.019">
  <defs>
    <style>
      .cls-1 {
        fill: #ffb100;
        stroke: #ffb100;
      }
    </style>
  </defs>
  <path id="bookmark_s" class="cls-1" d="M15.232,5.144l-4.393-.4a.638.638,0,0,1-.6-.461L8.643.469a.772.772,0,0,0-1.4,0L5.715,4.222a.8.8,0,0,1-.666.461L.657,5.144a.737.737,0,0,0-.4,1.317l3.328,2.9a.779.779,0,0,1,.266.724l-1,4.016a.735.735,0,0,0,1.131.79l3.66-2.107a.857.857,0,0,1,.8,0l3.66,2.107a.76.76,0,0,0,1.131-.79l-1-4.016a.654.654,0,0,1,.266-.724l3.328-2.9A.851.851,0,0,0,15.232,5.144Z" transform="translate(1303.026 194.975)"/>
</svg>
