<svg xmlns="http://www.w3.org/2000/svg" viewBox="-2609 -1486 26.471 25">
  <defs>
    <style>
      .cls-1 {
        fill: #62a8ea;
        opacity: 0.5;
      }
    </style>
  </defs>
  <g id="chat_deactive" transform="translate(-2609 -1486)">
    <path id="빼기_9" data-name="빼기 9" class="cls-1" d="M293.142,690h0a1.143,1.143,0,0,1-1.024-1.177v-4.117h-.146a6.626,6.626,0,0,1-3.583-2.334A6.51,6.51,0,0,1,287,678.382v-6.764a6.6,6.6,0,0,1,1.919-4.688,6.525,6.525,0,0,1,4.661-1.93h13.163a6.792,6.792,0,0,1,6.728,6.618v6.764a6.6,6.6,0,0,1-1.92,4.688,6.526,6.526,0,0,1-4.662,1.93h-5.7l-8.043,5Zm13.17-16.177a1.471,1.471,0,0,0,0,2.941,1.471,1.471,0,0,0,0-2.941Zm-6,0a1.471,1.471,0,0,0,0,2.941,1.471,1.471,0,0,0,0-2.941Zm-6,0a1.471,1.471,0,0,0,0,2.941,1.471,1.471,0,0,0,0-2.941Z" transform="translate(-287 -665)"/>
  </g>
</svg>
  