<svg xmlns="http://www.w3.org/2000/svg" viewBox="-1479 -1488 28 26">
  <defs>
    <style>
      .cls-1 {
        fill: #fff;
      }
    </style>
  </defs>
  <g id="chat_active" transform="translate(-1691 -1533)">
    <g id="chat_on">
      <path id="chat_active-2" data-name="chat_active" class="cls-1" d="M28,13.88V6.837A7.156,7.156,0,0,0,20.815,0H6.974A6.9,6.9,0,0,0,0,6.837v7.147A6.783,6.783,0,0,0,5.283,20.51h.106v4.247A1.237,1.237,0,0,0,6.445,26L14.9,20.821h6.023A7.079,7.079,0,0,0,28,13.88ZM7.713,12.223a1.43,1.43,0,0,1-1.479-1.45A1.518,1.518,0,0,1,7.713,9.219h.211A1.434,1.434,0,0,1,9.3,10.773v.207A1.6,1.6,0,0,1,7.713,12.223Zm6.234,0a1.43,1.43,0,0,1-1.479-1.45,1.518,1.518,0,0,1,1.479-1.554h.211a1.434,1.434,0,0,1,1.374,1.554v.207A1.7,1.7,0,0,1,13.947,12.223Zm6.128,0h-.211a1.434,1.434,0,0,1-1.374-1.554v-.207a1.443,1.443,0,0,1,1.585-1.347h.211a1.434,1.434,0,0,1,1.374,1.554v.207A1.59,1.59,0,0,1,20.075,12.223Z" transform="translate(212 45)"/>
    </g>
  </g>
</svg>
