<svg xmlns="http://www.w3.org/2000/svg" viewBox="2943 256 18 18">
  <defs>
    <style>
      .cls-1 {
        fill: #5b9ced;
      }

      .cls-2 {
        fill: #fff;
      }
    </style>
  </defs>
  <g id="checkbox" transform="translate(2921 -115)">
    <rect id="사각형_67" data-name="사각형 67" class="cls-1" width="18" height="18" rx="3" transform="translate(22 371)"/>
    <path id="패스_217" data-name="패스 217" class="cls-2" d="M4.6,7.4a.908.908,0,0,1-.7-.3L.3,3.4A.967.967,0,0,1,.3,2,.967.967,0,0,1,1.7,2L4.6,4.9,8.5.4A.972.972,0,0,1,9.9.3.972.972,0,0,1,10,1.7L5.4,7.1a.984.984,0,0,1-.8.3Z" transform="translate(26 375.955)"/>
  </g>
</svg>
