<svg xmlns="http://www.w3.org/2000/svg" viewBox="-596 -1203 30 30">
  <defs>
    <style>
      .cls-1 {
        fill: #6c49b8;
      }

      .cls-2 {
        fill: #fff;
        fill-rule: evenodd;
      }
    </style>
  </defs>
  <g id="cloud" transform="translate(-681 -1445)">
    <circle id="타원_107" data-name="타원 107" class="cls-1" cx="15" cy="15" r="15" transform="translate(85 242)"/>
    <path id="패스_425" data-name="패스 425" class="cls-2" d="M13.352,12.093a4.282,4.282,0,0,1-.708-.071v.07H4.852v-.029c-.118.011-.233.03-.354.03A3.851,3.851,0,0,1,3.457,4.522,4.783,4.783,0,0,1,8.394.149a4.971,4.971,0,0,1,4.587,2.843,4.953,4.953,0,0,0-4.1,2.789h.8a4.233,4.233,0,1,1,3.67,6.312Z" transform="translate(90.398 250.851)"/>
  </g>
</svg>
