<svg xmlns="http://www.w3.org/2000/svg" viewBox="1386.5 -539.25 25 28.25">
  <defs>
    <style>
      .cls-1, .cls-2 {
        fill: #fff;
      }

      .cls-2 {
        stroke: #8a97a2;
      }

      .cls-3 {
        fill: #8a97a2;
      }

      .cls-4 {
        fill: #75838e;
        font-size: 11px;
        font-family: PTSerif-Bold, PT Serif;
        font-weight: 700;
      }
    </style>
  </defs>
  <g id="ico_etc" transform="translate(1297 -728.5)">
    <path id="패스_322" data-name="패스 322" class="cls-1" d="M3,.5H17.362L24.5,7.313V25A2.5,2.5,0,0,1,22,27.5H3A2.5,2.5,0,0,1,.5,25V3A2.5,2.5,0,0,1,3,.5Z" transform="translate(90 190)"/>
    <g id="그룹_125" data-name="그룹 125" transform="translate(-0.5 -55.75)">
      <path id="패스_335" data-name="패스 335" class="cls-2" d="M3,.5H17.362L24.5,7.313V25A2.5,2.5,0,0,1,22,27.5H3A2.5,2.5,0,0,1,.5,25V3A2.5,2.5,0,0,1,3,.5Z" transform="translate(90 245)"/>
      <path id="패스_336" data-name="패스 336" class="cls-3" d="M114.5,196.749h-7.249v-7.5" transform="translate(0 56)"/>
    </g>
    <text id="Etc" class="cls-4" transform="translate(94 209.5)"><tspan x="0" y="0">Etc</tspan></text>
  </g>
</svg>
