<svg xmlns="http://www.w3.org/2000/svg" viewBox="-778 -1295 30 30">
  <defs>
    <style>
      .cls-1 {
        fill: #ffb03a;
      }

      .cls-2 {
        fill: #fff;
      }
    </style>
  </defs>
  <g id="user" transform="translate(-863 -1537)">
    <circle id="타원_107" data-name="타원 107" class="cls-1" cx="15" cy="15" r="15" transform="translate(85 242)"/>
    <g id="menu_user" transform="translate(-278 192.933)">
      <path id="패스_105" data-name="패스 105" class="cls-2" d="M69.569,20.175c0-.385-.394-.962-1.97-1.522-1.558-.56-2.077-1.032-2.077-2.03,0-.612.483-.4.68-1.522.09-.455.5,0,.591-1.067,0-.42-.233-.525-.233-.525a10.417,10.417,0,0,0,.161-1.1,2.548,2.548,0,0,0-5.05,0c.054.472.161,1.1.161,1.1a.358.358,0,0,0-.161.175A2,2,0,0,1,61.6,14v.035c.09,1.05.5.595.591,1.067.215,1.1.68.91.68,1.522a1.527,1.527,0,0,1-.519,1.26c1.862.752,2.794,1.732,2.794,2.922v.7h4.387A12.558,12.558,0,0,0,69.569,20.175Z" transform="translate(318.431 47.312)"/>
      <path id="합치기_12" data-name="합치기 12" class="cls-2" d="M6.626,14H0V12.372c0-.49.466-1.207,2.418-1.89C4.37,9.783,5,9.2,5,7.945c0-.752-.609-.508-.86-1.89-.107-.577-.626,0-.734-1.312,0-.526.286-.647.286-.647s-.143-.77-.2-1.365C3.421,2,3.922,0,6.626,0A3.85,3.85,0,0,1,8.284.33C8.693.443,9.641.655,9.851.275c.223-.4-.145.772-.371,1.189A2.32,2.32,0,0,1,9.76,2.73c-.054.6-.2,1.365-.2,1.365s.287.122.287.647c-.107,1.312-.626.735-.735,1.312-.268,1.382-.86,1.138-.86,1.89,0,1.26.627,1.838,2.579,2.537,1.952.683,2.435,1.4,2.435,1.89V14Z" transform="translate(369 57)"/>
    </g>
  </g>
</svg>
