<svg xmlns="http://www.w3.org/2000/svg" viewBox="652 247 65 80.002">
  <defs>
    <style>
      .cls-1 {
        fill: #e6e6e6;
        fill-rule: evenodd;
      }
    </style>
  </defs>
  <g id="none_alarm" transform="translate(429 -1)">
    <path id="패스_227" data-name="패스 227" class="cls-1" d="M0,67.706V63.6L8.125,55.4V34.884c0-12.636,6.622-23.139,18.281-25.929V6.166a6.094,6.094,0,1,1,12.188,0V8.955c11.619,2.79,18.281,13.334,18.281,25.929V55.4L65,63.6v4.1ZM24.118,28.525a3.628,3.628,0,1,0,3.592,3.628A3.605,3.605,0,0,0,24.118,28.525Zm16.764,0a3.628,3.628,0,1,0,3.592,3.628A3.6,3.6,0,0,0,40.882,28.525ZM20.263,43.036a13.078,13.078,0,0,0,24.474,0ZM32.5,80.014a8.164,8.164,0,0,1-8.125-8.206h16.25A8.19,8.19,0,0,1,32.5,80.014Z" transform="translate(223 247.988)"/>
  </g>
</svg>
