<svg xmlns="http://www.w3.org/2000/svg" viewBox="-778 -1203 30 30">
  <defs>
    <style>
      .cls-1 {
        fill: #379392;
      }

      .cls-2 {
        fill: #fff;
      }
    </style>
  </defs>
  <g id="notice" transform="translate(-863 -1445)">
    <circle id="타원_107" data-name="타원 107" class="cls-1" cx="15" cy="15" r="15" transform="translate(85 242)"/>
    <path id="합치기_24" data-name="합치기 24" class="cls-2" d="M213.974,475h-1.831A2.145,2.145,0,0,1,210,472.857h5a1.467,1.467,0,0,0,1.428-1.428v-7.858h2.143c.674,0,1.4.444,1.413,1.1A2.741,2.741,0,0,1,220,465v8.572A1.468,1.468,0,0,1,218.571,475ZM206,471.429a1,1,0,0,1-1-1V461a1,1,0,0,1,1-1h8a1,1,0,0,1,1,1v9.429a1,1,0,0,1-1,1Zm1.143-2.143h5.714v-1.429h-5.714Zm0-2.857h5.714V465h-5.714Zm0-2.858h5.714v-1.428h-5.714Z" transform="translate(-112 -211)"/>
  </g>
</svg>
