<svg xmlns="http://www.w3.org/2000/svg" width="20" height="20" fill="none" viewBox="0 0 20 20">
    <path fill="#2A8BF2" fill-rule="evenodd" d="M10 11.667H7.5A.834.834 0 0 1 7.5 10H10a.834.834 0 0 1 0 1.667zm-3.333 2.5c0-.46.373-.834.833-.834h5a.833.833 0 1 1 0 1.667h-5a.834.834 0 0 1-.833-.833zm7.87 2.5H5.463c-.255 0-.462-.187-.462-.417V3.75c0-.23.207-.417.462-.417h4.538v2.625c0 1.31 1.014 2.375 2.261 2.375h2.739v7.917c0 .23-.208.417-.464.417zm-2.87-12.519l2.285 2.519h-1.69c-.328 0-.595-.318-.595-.709v-1.81zm4.784 2.792l-4.537-5a.833.833 0 0 0-.617-.273H5.463c-1.174 0-2.129.935-2.129 2.083v12.5c0 1.148.955 2.083 2.13 2.083h9.073c1.174 0 2.13-.935 2.13-2.083V7.5a.833.833 0 0 0-.216-.56z" clip-rule="evenodd"/>
    <mask id="a" width="14" height="18" x="3" y="1" maskUnits="userSpaceOnUse">
        <path fill="#fff" fill-rule="evenodd" d="M10 11.667H7.5A.834.834 0 0 1 7.5 10H10a.834.834 0 0 1 0 1.667zm-3.333 2.5c0-.46.373-.834.833-.834h5a.833.833 0 1 1 0 1.667h-5a.834.834 0 0 1-.833-.833zm7.87 2.5H5.463c-.255 0-.462-.187-.462-.417V3.75c0-.23.207-.417.462-.417h4.538v2.625c0 1.31 1.014 2.375 2.261 2.375h2.739v7.917c0 .23-.208.417-.464.417zm-2.87-12.519l2.285 2.519h-1.69c-.328 0-.595-.318-.595-.709v-1.81zm4.784 2.792l-4.537-5a.833.833 0 0 0-.617-.273H5.463c-1.174 0-2.129.935-2.129 2.083v12.5c0 1.148.955 2.083 2.13 2.083h9.073c1.174 0 2.13-.935 2.13-2.083V7.5a.833.833 0 0 0-.216-.56z" clip-rule="evenodd"/>
    </mask>
    <g mask="url(#a)">
        <path fill="#fff" d="M0 0h20v20H0z"/>
    </g>
</svg>
