<svg xmlns="http://www.w3.org/2000/svg" width="32" height="32" fill="none" viewBox="0 0 32 32">
    <circle cx="16" cy="16" r="16" fill="#fff"/>
    <path fill="#707C97" d="M12.898 18.652H9.942v-3.476l.97.969a.328.328 0 0 0 .463-.464l-1.529-1.53a.328.328 0 0 0-.464 0l-1.53 1.53a.328.328 0 0 0 .465.464l.969-.969v3.476H6.33a.328.328 0 0 0-.328.329v6.567c0 .182.147.329.328.329h6.568a.328.328 0 0 0 .328-.328V18.98a.328.328 0 0 0-.328-.329zm-.329 6.568H6.66v-5.91h5.91v5.91zM15.87 8.025a.329.329 0 1 0-.465.464l.97.969H13.21a3.612 3.612 0 1 0 0 .656h3.164l-.969.97a.328.328 0 1 0 .465.463l1.529-1.529a.328.328 0 0 0 0-.464l-1.53-1.53zM9.614 12.74a2.955 2.955 0 1 1 0-5.91 2.955 2.955 0 0 1 0 5.91zM25.88 9.532L22.3 6.609a.328.328 0 0 0-.416 0l-3.579 2.923a.328.328 0 0 0 0 .508l3.46 2.824v4.01l-.97-.968a.328.328 0 0 0-.464.464l1.53 1.53a.328.328 0 0 0 .464 0l1.53-1.53a.328.328 0 0 0-.465-.464l-.97.969v-4.01l3.46-2.825a.329.329 0 0 0 0-.508zm-3.787 2.752l-3.06-2.498 3.06-2.498 3.06 2.498-3.06 2.498zM15.807 24.101a.329.329 0 1 0 .465-.464l-.97-.969h3.166a3.612 3.612 0 1 0 0-.657h-3.165l.969-.969a.328.328 0 1 0-.465-.464l-1.529 1.53a.328.328 0 0 0 0 .464l1.53 1.53zm6.256-4.717a2.955 2.955 0 1 1 0 5.911 2.955 2.955 0 0 1 0-5.91z"/>
</svg>
