<svg xmlns="http://www.w3.org/2000/svg" width="32" height="32" fill="none" viewBox="0 0 32 32">
    <circle cx="16" cy="16" r="16" fill="#fff"/>
    <path fill="#707C97" d="M25.534 5h-11c-.809 0-1.466.657-1.466 1.467V8.06C5.618 9.2 2.352 18.261 7.5 23.9c0 0 .03.021.04.036 4.136 4.263 10.38 3.907 13.995 0 0 0 .022 0 .029-.025a9.493 9.493 0 0 0 2.244-8.64h1.727c.81 0 1.466-.656 1.466-1.466V6.467C27 5.657 26.343 5 25.534 5zm-7.366 11.346c0 .25.022.502.026.759h-1.166l1.14-.76zm5.166 1.493a8.751 8.751 0 0 1-2.112 5.359 9.36 9.36 0 0 0-2.786-1.203c.317-1.363.484-2.757.498-4.156h4.4zm-17.598 0h4.4c.016 1.4.185 2.793.505 4.156a9.36 9.36 0 0 0-2.786 1.203 8.751 8.751 0 0 1-2.119-5.36zm2.123-6.093c.86.552 1.805.96 2.797 1.207-.325 1.36-.5 2.753-.52 4.152h-4.4a8.762 8.762 0 0 1 2.123-5.36zm5.21.884a13.834 13.834 0 0 1-1.511-.22 7.738 7.738 0 0 1 1.51-2.96v3.18zm-2.226-.389a8.684 8.684 0 0 1-2.475-1.038 8.754 8.754 0 0 1 4.22-2.311 8.258 8.258 0 0 0-1.745 3.349zm0 10.462a8.344 8.344 0 0 0 1.752 3.352 8.775 8.775 0 0 1-4.23-2.314c.766-.47 1.599-.82 2.47-1.038h.008zm.733-.165a15.061 15.061 0 0 1 5.954 0c-1.51 4.974-4.462 4.981-5.972 0h.018zm6.676.165a8.798 8.798 0 0 1 2.471 1.038 8.775 8.775 0 0 1-4.241 2.314 8.344 8.344 0 0 0 1.752-3.352h.018zm-.531-.873a15.757 15.757 0 0 0-6.335 0 18.471 18.471 0 0 1-.517-3.991h4.033c0 .202.164.367.366.367.14 0 .165-.037.66-.367h2.273a18.479 18.479 0 0 1-.498 3.99h.018zm-2.82-4.725H10.87c.017-1.343.18-2.68.487-3.987.562.116 1.13.2 1.701.25v.436c0 .81.657 1.467 1.467 1.467.202 0 .367.164.367.367l.01 1.467zm8.433 0h-4.4c0-.418-.025-.829-.055-1.229l.899-.605h3.27c.161.6.257 1.214.286 1.834zm2.933-3.301a.734.734 0 0 1-.733.733h-5.866c-.162 0 .157-.18-4.033 2.616v-1.515a1.1 1.1 0 0 0-1.1-1.1.734.734 0 0 1-.733-.734V6.467c0-.405.328-.733.733-.733h10.998c.405 0 .734.328.734.733v7.337z"/>
    <path fill="#707C97" d="M17.284 6.833a2.02 2.02 0 0 0-2.016 2.017v2.383a.367.367 0 0 0 .733 0V9.766h2.566v1.467a.367.367 0 0 0 .734 0V8.85a2.02 2.02 0 0 0-2.017-2.017zm-1.283 2.2V8.85a1.283 1.283 0 0 1 2.566 0v.183h-2.566zM24.801 9.4h-1.466v-.734a.367.367 0 1 0-.734 0V9.4h-1.466a.367.367 0 1 0 0 .734H23.7a3.028 3.028 0 0 1-.616 1.95c-.04.044-.088.077-.132.117a2.162 2.162 0 0 1-.62-1.066.367.367 0 0 0-.707.194c.118.463.344.891.66 1.25a2.69 2.69 0 0 1-.785.121.367.367 0 0 0 0 .733 3.102 3.102 0 0 0 1.467-.333c.454.229.958.344 1.466.333a.367.367 0 1 0 0-.733c-.27.003-.54-.036-.799-.117a3.666 3.666 0 0 0 .8-2.45h.366a.367.367 0 1 0 0-.733z"/>
</svg>
