<svg xmlns="http://www.w3.org/2000/svg" width="32" height="32" fill="none" viewBox="0 0 32 32">
    <path fill="#707C97" stroke="#707C97" stroke-width=".4" d="M16.276 30h-.28a97.324 97.324 0 0 1-6.194-.17c-1.808-.11-3.459-.736-4.773-1.808-1.269-1.034-2.135-2.433-2.575-4.156-.383-1.5-.403-2.974-.422-4.398A306.762 306.762 0 0 1 2 16.003c.003-1.237.018-2.449.032-3.47.02-1.425.04-2.898.422-4.399.44-1.723 1.306-3.122 2.575-4.156C6.343 2.906 7.994 2.28 9.802 2.17c1.972-.12 4-.176 6.2-.17 2.196-.005 4.223.05 6.195.17 1.808.11 3.459.735 4.773 1.807 1.269 1.034 2.135 2.433 2.575 4.156.383 1.5.403 2.974.422 4.398.014 1.022.03 2.234.032 3.465v.006a302.24 302.24 0 0 1-.032 3.465c-.02 1.424-.04 2.897-.422 4.398-.44 1.723-1.306 3.122-2.575 4.156-1.314 1.072-2.965 1.697-4.773 1.807-1.889.115-3.829.171-5.921.171zm-.28-2.188c2.16.005 4.142-.05 6.068-.166 1.367-.083 2.553-.527 3.524-1.319.897-.732 1.516-1.742 1.837-3.002.319-1.25.337-2.59.355-3.887.014-1.015.028-2.218.031-3.438-.003-1.22-.017-2.422-.03-3.438-.019-1.297-.037-2.638-.356-3.887-.321-1.26-.94-2.27-1.837-3.002-.971-.792-2.157-1.236-3.524-1.319a95.574 95.574 0 0 0-6.062-.166 95.315 95.315 0 0 0-6.067.166c-1.367.083-2.553.527-3.524 1.319-.898.732-1.516 1.742-1.837 3.002-.319 1.25-.337 2.59-.355 3.887-.014 1.016-.029 2.22-.032 3.44.003 1.216.018 2.42.032 3.436.018 1.297.036 2.638.355 3.887.321 1.26.94 2.27 1.837 3.002.971.792 2.157 1.235 3.524 1.318 1.926.118 3.909.172 6.062.167z"/>
    <path fill="#707C97" d="M18.675 19.303c0-.599-.209-1.06-.625-1.385-.41-.324-1.155-.651-2.234-.982-1.078-.33-1.936-.699-2.573-1.104-1.22-.78-1.83-1.797-1.83-3.051 0-1.098.439-2.003 1.315-2.714C13.61 9.356 14.753 9 16.156 9c.932 0 1.762.175 2.491.524.73.35 1.302.849 1.719 1.497.416.643.625 1.357.625 2.143h-2.316c0-.71-.22-1.266-.662-1.665-.435-.406-1.06-.609-1.875-.609-.76 0-1.351.166-1.774.496-.417.331-.625.793-.625 1.385 0 .5.227.917.68 1.254.454.331 1.201.655 2.243.974 1.041.312 1.878.67 2.509 1.076.631.4 1.094.86 1.388 1.385.294.518.441 1.126.441 1.825 0 1.135-.429 2.04-1.287 2.714-.852.667-2.01 1.001-3.474 1.001-.968 0-1.86-.18-2.675-.543-.809-.368-1.44-.873-1.893-1.516C11.224 20.3 11 19.55 11 18.695h2.325c0 .774.252 1.373.754 1.797.502.424 1.223.636 2.16.636.809 0 1.415-.165 1.82-.496.41-.337.616-.78.616-1.329z"/>
</svg>
