<svg xmlns="http://www.w3.org/2000/svg" width="16" height="16" fill="none" viewBox="0 0 16 16">
    <path fill="#707C97" fill-rule="evenodd" d="M7.67 2.667c1.103 0 2 .897 2 2s-.897 2-2 2-2-.897-2-2 .897-2 2-2zM7.67 8a3.337 3.337 0 0 0 3.334-3.333A3.337 3.337 0 0 0 7.67 1.333a3.337 3.337 0 0 0-3.333 3.334A3.337 3.337 0 0 0 7.67 8zM7.67 8.667a4.672 4.672 0 0 0-4.666 4.666.666.666 0 1 0 1.333 0A3.337 3.337 0 0 1 7.67 10a3.337 3.337 0 0 1 3.334 3.333.666.666 0 1 0 1.333 0A4.672 4.672 0 0 0 7.67 8.667z" clip-rule="evenodd"/>
</svg>
