<svg xmlns="http://www.w3.org/2000/svg" width="40" height="40" fill="none" viewBox="0 0 40 40">
    <circle cx="20" cy="20" r="19.5" fill="#FCFCFC" stroke="#E3E7F2"/>
    <g clip-path="url(#a)">
        <path fill="#707C97" d="M20 28c-2.757 0-5-2.243-5-5v-7.167a.5.5 0 0 1 1 0V23c0 2.206 1.794 4 4 4s4-1.794 4-4v-7.333A2.67 2.67 0 0 0 21.333 13a2.67 2.67 0 0 0-2.666 2.667v6.666a1.335 1.335 0 0 0 2.666 0v-6.5a.5.5 0 0 1 1 0v6.5A2.336 2.336 0 0 1 20 24.667a2.336 2.336 0 0 1-2.333-2.334v-6.666A3.671 3.671 0 0 1 21.333 12 3.671 3.671 0 0 1 25 15.667V23c0 2.757-2.243 5-5 5z"/>
    </g>
    <defs>
        <clipPath id="a">
            <path fill="#fff" d="M0 0h16v16H0z" transform="translate(12 12)"/>
        </clipPath>
    </defs>
</svg>
