<svg xmlns="http://www.w3.org/2000/svg" width="24" height="24" fill="none" viewBox="0 0 24 24">
    <path fill="#707C97" fill-rule="evenodd" d="M6.695 14.818L5.515 16H6l-1.908 1.908a1.633 1.633 0 0 1-.967-.918 1.631 1.631 0 0 1 .354-1.782l1.8-1.804.002-4.677c0-1.934.838-3.778 2.302-5.06A6.722 6.722 0 0 1 12.9 2.06c1.802.239 3.364 1.22 4.415 2.625L15.88 6.12c-.734-1.113-1.892-1.898-3.243-2.077A4.66 4.66 0 0 0 8.9 5.171a4.732 4.732 0 0 0-1.62 3.556v4.677c0 .534-.208 1.036-.586 1.414zM12.364 16h6.122l-1.181-1.183a1.986 1.986 0 0 1-.585-1.413v-1.76l2-2v3.76l1.8 1.804a1.63 1.63 0 0 1 .353 1.783A1.629 1.629 0 0 1 19.363 18H16v.341C16 20.359 14.206 22 12 22c-1.574 0-2.938-.835-3.59-2.046l1.59-1.59c.015.889.925 1.636 2 1.636 1.084 0 2-.76 2-1.659V18h-3.636l2-2z" clip-rule="evenodd"/>
    <path stroke="#707C97" stroke-linecap="round" stroke-linejoin="round" stroke-width="2" d="M20 5.414L4.444 20.971"/>
</svg>
