<svg xmlns="http://www.w3.org/2000/svg" width="32" height="32" fill="none" viewBox="0 0 32 32">
    <circle cx="16" cy="16" r="16" fill="#fff"/>
    <path fill="#707C97" d="M17.833 17.1h2.934a.734.734 0 0 0 .733-.733v-2.934a.734.734 0 0 0-.733-.733h-2.934a.734.734 0 0 0-.733.733v2.934c0 .404.328.732.733.733zm0-3.667h2.934v2.934h-2.934v-2.934zM17.833 22.967h2.934a.734.734 0 0 0 .733-.734V21.5a.367.367 0 0 0-.733 0v.733h-2.934V19.3h1.834a.367.367 0 0 0 0-.733h-1.834a.734.734 0 0 0-.733.733v2.933c0 .405.328.733.733.734zM10.867 13.433c0 .203.123.367.275.367h3.85c.151 0 .275-.164.275-.367 0-.202-.123-.366-.275-.366h-3.85c-.152 0-.275.164-.275.366zM11.193 16.733h2.281c.18 0 .326-.164.326-.366 0-.203-.146-.367-.326-.367h-2.281c-.18 0-.326.164-.326.367 0 .202.146.366.326.366zM14.992 18.933h-3.85c-.152 0-.275.165-.275.367 0 .203.123.367.275.367h3.85c.151 0 .275-.165.275-.367 0-.203-.123-.367-.275-.367zM13.474 21.867h-2.281c-.18 0-.326.164-.326.366 0 .203.146.367.326.367h2.281c.18 0 .326-.164.326-.367 0-.202-.146-.366-.326-.366z"/>
    <path fill="#707C97" d="M19.192 20.14a.367.367 0 0 0-.518.52l.733.733a.366.366 0 0 0 .553-.04l2.2-2.933a.367.367 0 1 0-.587-.44l-1.946 2.595-.434-.434z"/>
    <path fill="#707C97" d="M22.967 7.2H19.78a2.93 2.93 0 0 0-1.294-.66.363.363 0 0 1-.286-.355V6.1c0-.607-.493-1.1-1.1-1.1h-2.2c-.607 0-1.1.493-1.1 1.1v.085c0 .17-.12.318-.286.354a2.93 2.93 0 0 0-1.294.661H9.033a2.57 2.57 0 0 0-2.566 2.567v14.666A2.57 2.57 0 0 0 9.033 27h13.934a2.57 2.57 0 0 0 2.566-2.567V9.767A2.57 2.57 0 0 0 22.967 7.2zm-11 3.667h8.066a.734.734 0 0 0 .734-.734V9.4H22.6c.405 0 .733.329.733.733v13.934a.734.734 0 0 1-.733.733H9.4a.734.734 0 0 1-.733-.733V10.133c0-.404.328-.733.733-.733h1.833v.733c0 .405.329.733.734.734zm1.71-3.612c.5-.111.857-.557.856-1.07V6.1c0-.202.165-.366.367-.367h2.2c.202 0 .366.165.367.367v.085c-.002.513.355.959.857 1.07a2.186 2.186 0 0 1 1.71 2.145v.733h-8.067V9.4a2.186 2.186 0 0 1 1.71-2.145zM24.8 24.433a1.836 1.836 0 0 1-1.833 1.834H9.033A1.836 1.836 0 0 1 7.2 24.433V9.767a1.836 1.836 0 0 1 1.833-1.834h2.59c-.132.23-.232.477-.298.734H9.4c-.81 0-1.466.657-1.467 1.466v13.934c.001.81.657 1.465 1.467 1.466h13.2c.81 0 1.466-.657 1.467-1.466V10.133c-.001-.81-.657-1.465-1.467-1.466h-1.925a2.918 2.918 0 0 0-.297-.734h2.589A1.836 1.836 0 0 1 24.8 9.767v14.666z"/>
    <path fill="#707C97" d="M16 8.667a1.1 1.1 0 1 0 0-2.2 1.1 1.1 0 0 0 0 2.2zM16 7.2a.367.367 0 1 1 0 .733.367.367 0 0 1 0-.733z"/>
</svg>
