<svg xmlns="http://www.w3.org/2000/svg" width="30" height="30" fill="none" viewBox="0 0 30 30">
    <path fill="#707C97" fill-rule="evenodd" d="M21.102 6.7c1.392 0 2.524 1.107 2.524 2.468 0 1.36-1.132 2.467-2.524 2.467-1.393 0-2.525-1.107-2.525-2.467S19.709 6.7 21.1 6.7zm0 7.402c2.784 0 5.049-2.213 5.049-4.934s-2.265-4.934-5.05-4.934c-2.784 0-5.049 2.213-5.049 4.934s2.265 4.934 5.05 4.934z" clip-rule="evenodd"/>
    <path fill="#707C97" d="M17.678 18.071c.326.34.842.398 1.273.207a5.913 5.913 0 0 1 2.41-.512c3.403 0 6.17 2.891 6.17 6.445 0 .712.553 1.289 1.235 1.289S30 24.922 30 24.21c0-4.975-3.876-9.023-8.639-9.023a8.291 8.291 0 0 0-3.938.994c-.534.287-.597 1-.178 1.438l.433.452z"/>
    <path fill="#707C97" fill-rule="evenodd" d="M8.562 5.467c2.135 0 3.87 1.682 3.87 3.75s-1.736 3.75-3.87 3.75c-2.135 0-3.871-1.682-3.871-3.75s1.736-3.75 3.87-3.75zm-.106 9.72c3.47 0 6.29-2.732 6.29-6.093 0-3.36-2.82-6.094-6.29-6.094-3.469 0-6.29 2.733-6.29 6.094 0 3.36 2.821 6.094 6.29 6.094zM8.71 16.125c-4.802 0-8.71 4.048-8.71 9.023 0 .712.556 1.29 1.244 1.29s1.244-.578 1.244-1.29c0-3.553 2.791-6.445 6.222-6.445 3.43 0 6.22 2.892 6.22 6.445 0 .712.557 1.29 1.245 1.29.688 0 1.244-.578 1.244-1.29 0-4.975-3.908-9.023-8.71-9.023z" clip-rule="evenodd"/>
</svg>
