<svg xmlns="http://www.w3.org/2000/svg" width="24" height="24" fill="none" viewBox="0 0 24 24">
    <path fill="#231F20" fill-rule="evenodd" d="M11.305 20.193a.695.695 0 1 0 1.39 0v-.157c0-1.039.64-1.972 1.627-2.38 1.022-.425 2.139-.216 2.874.524l.106.106a.697.697 0 1 0 .986-.985l-.112-.111c-.736-.736-.944-1.85-.53-2.84v-.002l.002-.003.012-.03c.404-.98 1.338-1.62 2.377-1.62h.157a.694.694 0 1 0 0-1.39h-.157c-1.039 0-1.973-.639-2.38-1.626-.427-1.023-.217-2.14.523-2.876l.107-.106a.696.696 0 1 0-.984-.986l-.113.113c-.736.736-1.85.944-2.84.53-1.015-.419-1.655-1.352-1.655-2.39v-.158a.695.695 0 1 0-1.39 0v.157c0 1.04-.639 1.972-1.626 2.38-1.021.428-2.138.218-2.875-.523l-.106-.107a.697.697 0 1 0-.986.985l.112.112c.736.735.945 1.85.53 2.84-.417 1.015-1.352 1.655-2.39 1.655h-.159a.694.694 0 1 0 0 1.39h.158c1.04 0 1.974.638 2.38 1.626.428 1.022.218 2.139-.522 2.875l-.107.107a.696.696 0 1 0 .984.985l.113-.113c.735-.735 1.85-.943 2.84-.53 1.014.419 1.654 1.352 1.654 2.391v.157zM12.943 22H11.05a1.678 1.678 0 0 1-1.676-1.675v-1.091c0-.148-.117-.248-.227-.294-.144-.058-.298-.07-.404.032l-.77.771a1.683 1.683 0 0 1-2.377 0l-1.34-1.34a1.67 1.67 0 0 1-.492-1.19c0-.448.176-.87.495-1.188l.768-.765c.105-.105.094-.26.047-.37-.06-.147-.16-.264-.308-.264H3.683A1.684 1.684 0 0 1 2 12.943V11.05c0-.925.752-1.676 1.677-1.676h1.09c.147 0 .248-.118.293-.228.06-.144.072-.3-.032-.403l-.771-.77a1.685 1.685 0 0 1 0-2.377l1.34-1.34a1.667 1.667 0 0 1 1.188-.492h.002c.449 0 .872.175 1.189.494l.765.769c.105.106.26.094.37.047.147-.061.264-.161.264-.308V3.683c0-.928.755-1.683 1.683-1.683h1.892c.924 0 1.676.752 1.676 1.676v1.09c0 .148.117.249.227.294.145.06.299.073.404-.032l.77-.771a1.683 1.683 0 0 1 2.377 0l1.34 1.34c.319.318.492.74.491 1.19 0 .448-.174.87-.494 1.188l-.768.766c-.105.105-.095.259-.047.37.06.147.16.264.308.264h1.083c.928 0 1.683.754 1.683 1.682v1.892c0 .925-.752 1.676-1.677 1.676h-1.09c-.146 0-.248.118-.293.228l-.014.033c-.045.11-.057.266.047.37l.77.77a1.685 1.685 0 0 1 0 2.377l-1.34 1.34a1.667 1.667 0 0 1-1.187.492h-.002c-.45 0-.872-.175-1.19-.494l-.764-.77c-.105-.105-.261-.093-.371-.047-.146.061-.263.162-.263.309v1.084c0 .927-.755 1.683-1.683 1.683zM12 9.223A2.781 2.781 0 0 0 9.222 12 2.781 2.781 0 0 0 12 14.777 2.781 2.781 0 0 0 14.777 12 2.781 2.781 0 0 0 12 9.222zm0 6.667a3.893 3.893 0 0 1-3.889-3.89 3.893 3.893 0 0 1 3.89-3.888A3.893 3.893 0 0 1 15.888 12 3.893 3.893 0 0 1 12 15.889z" clip-rule="evenodd"/>
    <mask id="a" width="20" height="20" x="2" y="2" maskUnits="userSpaceOnUse">
        <path fill="#fff" fill-rule="evenodd" d="M11.305 20.193a.695.695 0 1 0 1.39 0v-.157c0-1.039.64-1.972 1.627-2.38 1.022-.425 2.139-.216 2.874.524l.106.106a.697.697 0 1 0 .986-.985l-.112-.111c-.736-.736-.944-1.85-.53-2.84v-.002l.002-.003.012-.03c.404-.98 1.338-1.62 2.377-1.62h.157a.694.694 0 1 0 0-1.39h-.157c-1.039 0-1.973-.639-2.38-1.626-.427-1.023-.217-2.14.523-2.876l.107-.106a.696.696 0 1 0-.984-.986l-.113.113c-.736.736-1.85.944-2.84.53-1.015-.419-1.655-1.352-1.655-2.39v-.158a.695.695 0 1 0-1.39 0v.157c0 1.04-.639 1.972-1.626 2.38-1.021.428-2.138.218-2.875-.523l-.106-.107a.697.697 0 1 0-.986.985l.112.112c.736.735.945 1.85.53 2.84-.417 1.015-1.352 1.655-2.39 1.655h-.159a.694.694 0 1 0 0 1.39h.158c1.04 0 1.974.638 2.38 1.626.428 1.022.218 2.139-.522 2.875l-.107.107a.696.696 0 1 0 .984.985l.113-.113c.735-.735 1.85-.943 2.84-.53 1.014.419 1.654 1.352 1.654 2.391v.157zM12.943 22H11.05a1.678 1.678 0 0 1-1.676-1.675v-1.091c0-.148-.117-.248-.227-.294-.144-.058-.298-.07-.404.032l-.77.771a1.683 1.683 0 0 1-2.377 0l-1.34-1.34a1.67 1.67 0 0 1-.492-1.19c0-.448.176-.87.495-1.188l.768-.765c.105-.105.094-.26.047-.37-.06-.147-.16-.264-.308-.264H3.683A1.684 1.684 0 0 1 2 12.943V11.05c0-.925.752-1.676 1.677-1.676h1.09c.147 0 .248-.118.293-.228.06-.144.072-.3-.032-.403l-.771-.77a1.685 1.685 0 0 1 0-2.377l1.34-1.34a1.667 1.667 0 0 1 1.188-.492h.002c.449 0 .872.175 1.189.494l.765.769c.105.106.26.094.37.047.147-.061.264-.161.264-.308V3.683c0-.928.755-1.683 1.683-1.683h1.892c.924 0 1.676.752 1.676 1.676v1.09c0 .148.117.249.227.294.145.06.299.073.404-.032l.77-.771a1.683 1.683 0 0 1 2.377 0l1.34 1.34c.319.318.492.74.491 1.19 0 .448-.174.87-.494 1.188l-.768.766c-.105.105-.095.259-.047.37.06.147.16.264.308.264h1.083c.928 0 1.683.754 1.683 1.682v1.892c0 .925-.752 1.676-1.677 1.676h-1.09c-.146 0-.248.118-.293.228l-.014.033c-.045.11-.057.266.047.37l.77.77a1.685 1.685 0 0 1 0 2.377l-1.34 1.34a1.667 1.667 0 0 1-1.187.492h-.002c-.45 0-.872-.175-1.19-.494l-.764-.77c-.105-.105-.261-.093-.371-.047-.146.061-.263.162-.263.309v1.084c0 .927-.755 1.683-1.683 1.683zM12 9.779A2.225 2.225 0 0 0 9.778 12c0 1.225.996 2.222 2.222 2.222A2.225 2.225 0 0 0 14.222 12 2.225 2.225 0 0 0 12 9.778zm0 6.11A3.893 3.893 0 0 1 8.111 12a3.893 3.893 0 0 1 3.89-3.89A3.893 3.893 0 0 1 15.888 12 3.893 3.893 0 0 1 12 15.889z" clip-rule="evenodd"/>
    </mask>
    <g mask="url(#a)">
        <path fill="#707C97" d="M-.399.6H23.6v23.999H-.399z"/>
    </g>
</svg>
