<svg xmlns="http://www.w3.org/2000/svg" width="32" height="32" fill="none" viewBox="0 0 32 32">
    <circle cx="16" cy="16" r="16" fill="#fff"/>
    <g fill="#707C97" clip-path="url(#a)">
        <path d="M24.321 6c-.929 0-1.679.75-1.679 1.679s.75 1.679 1.68 1.679c.928 0 1.678-.75 1.678-1.68C26 6.75 25.25 6 24.321 6zm0 2.495a.816.816 0 1 1 0-1.631.816.816 0 0 1 0 1.631zM7.679 15.569c-.93 0-1.679.75-1.679 1.678 0 .93.75 1.68 1.679 1.68s1.679-.75 1.679-1.68c0-.929-.75-1.678-1.68-1.678zm0 2.495a.816.816 0 1 1-.001-1.632.816.816 0 0 1 0 1.632zM12.669 10.579c-.93 0-1.679.75-1.679 1.678 0 .93.75 1.68 1.679 1.68s1.679-.75 1.679-1.68c0-.929-.75-1.678-1.68-1.678zm0 2.495a.816.816 0 1 1-.001-1.632.816.816 0 0 1 0 1.632zM16.206 14.115c-.93 0-1.68.75-1.68 1.68 0 .928.75 1.678 1.68 1.678.929 0 1.678-.75 1.678-1.679s-.75-1.679-1.678-1.679zm0 2.495a.816.816 0 1 1-.002-1.63.816.816 0 0 1 .002 1.63z"/>
        <path d="M23.128 8.249l-6.343 6.354.611.61 6.342-6.355-.61-.61zM13.858 12.833l-.609.61 1.777 1.771.61-.61-1.778-1.771zM11.483 12.833L8.26 16.056l.61.61 3.223-3.223-.61-.61zM25.987 25.137H6.013V26h19.974v-.863z"/>
        <path fill-rule="evenodd" d="M23.953 13.887H22.8V25.2h1.152V13.887zm.8-.8V26H22V13.087h2.753z" clip-rule="evenodd"/>
        <path d="M17.85 19.331h-.863v6.238h.862V19.33zM8.11 20.579h-.862v4.99h.862v-4.99zM13.1 16.83h-.862v8.739h.862v-8.74z"/>
    </g>
    <defs>
        <clipPath id="a">
            <path fill="#fff" d="M0 0h20v20H0z" transform="translate(6 6)"/>
        </clipPath>
    </defs>
</svg>
