<svg xmlns="http://www.w3.org/2000/svg" width="30" height="30" fill="none" viewBox="0 0 30 30">
    <path fill="#707C97" fill-rule="evenodd" d="M24 4.82C24 2.157 21.728 0 18.928 0H5.072C2.272 0 0 2.157 0 4.82v9.386c0 2.663 2.272 4.82 5.072 4.82h.05l.042 2.828c.007.437.27.834.684 1.027.413.193.905.149 1.273-.114l5.24-3.737 6.567-.004c2.8 0 5.072-2.157 5.072-4.82V4.82zm-5.072-2.494c1.451 0 2.626 1.117 2.626 2.494v9.386c0 1.377-1.175 2.494-2.626 2.494h-4.17l-2.807.005c-.264 0-.52.082-.732.233l-3.644 2.598-.025-1.69c-.01-.635-.554-1.146-1.223-1.146H5.072c-1.451 0-2.626-1.117-2.626-2.494V4.82c0-1.377 1.175-2.494 2.626-2.494h13.856z" clip-rule="evenodd"/>
    <path fill="#707C97" fill-rule="evenodd" d="M16.655 11.044c-.656 0-1.19-.521-1.19-1.163 0-.641.534-1.162 1.19-1.162.657 0 1.19.52 1.19 1.162 0 .642-.533 1.163-1.19 1.163zM11.897 11.044c-.656 0-1.19-.521-1.19-1.163 0-.641.534-1.162 1.19-1.162.657 0 1.19.52 1.19 1.162 0 .642-.533 1.163-1.19 1.163zM7.138 11.044c-.657 0-1.19-.521-1.19-1.163 0-.641.533-1.162 1.19-1.162.657 0 1.19.52 1.19 1.162 0 .642-.533 1.163-1.19 1.163zM10.256 21c.973 3.908 4.614 6.82 8.943 6.82H21.333l2.85 1.367.01.005.405.195.904.433a.643.643 0 0 0 .69.133.613.613 0 0 0 .39-.566V25.84A9.058 9.058 0 0 0 29 22.953a8.59 8.59 0 0 0 1-4.043c0-3.046-1.586-5.74-4-7.347v3.16c1.003 1.143 1.6 2.613 1.6 4.187a6.19 6.19 0 0 1-.723 2.924l2.056 1.084-2.056-1.084a6.66 6.66 0 0 1-1.776 2.118l-.919.72v1.853l-1.81-.869-.493-.236H19.2c-3.03 0-5.532-1.885-6.436-4.42h-2.507z" clip-rule="evenodd"/>
</svg>
