<svg xmlns="http://www.w3.org/2000/svg" width="32" height="32" fill="none" viewBox="0 0 32 32">
    <circle cx="16" cy="16" r="16" fill="#fff"/>
    <path fill="#707C97" d="M27.298 9.797a1.133 1.133 0 0 0-1.243.22l-3.792 3.423v-2.674a2.084 2.084 0 0 0-2.082-2.082h-13.1A2.084 2.084 0 0 0 5 10.766v9.796a2.02 2.02 0 0 0 2.017 2.017h13.068a2.18 2.18 0 0 0 2.178-2.179v-2.369l3.766 3.556a1.138 1.138 0 0 0 1.253.25c.436-.18.718-.602.718-1.076v-9.894c0-.474-.27-.884-.702-1.07zM21.42 20.4c0 .737-.6 1.337-1.336 1.337H7.017a1.176 1.176 0 0 1-1.175-1.175v-9.796c0-.684.556-1.24 1.24-1.24h13.1c.683 0 1.24.556 1.24 1.24V20.4zm5.737.361c0 .201-.15.279-.197.297a.3.3 0 0 1-.338-.069l-4.267-4.033c-.05-.05-.046-2.412.003-2.459l4.272-3.865a.295.295 0 0 1 .335-.062c.044.02.192.099.192.296v9.895z"/>
    <path fill="#707C97" d="M12.963 13.377a2.718 2.718 0 0 0-.703-1.216 2.74 2.74 0 0 0-3.87 0 2.74 2.74 0 0 0 0 3.87 2.74 2.74 0 0 0 3.87 0 2.722 2.722 0 0 0 .794-1.811h.844a.42.42 0 0 0 .42-.421.42.42 0 0 0-.42-.421h-.935zm-1.298 2.059a1.897 1.897 0 0 1-2.68 0 1.897 1.897 0 0 1 0-2.68 1.897 1.897 0 0 1 3.092.621H10.92a.42.42 0 1 0 0 .842h1.287a1.88 1.88 0 0 1-.542 1.217z"/>
    <path stroke="#707C97" stroke-linejoin="round" stroke-width=".8" d="M16 22l1.825 4.562a.696.696 0 1 0 1.293-.517L17.5 22M9.5 22l-1.618 4.045a.696.696 0 0 0 1.293.517L11 22"/>
</svg>
