<svg xmlns="http://www.w3.org/2000/svg" width="32" height="32" fill="none" viewBox="0 0 32 32">
    <circle cx="16" cy="16" r="16" fill="#fff"/>
    <path fill="#707C97" d="M6.589 7a2 2 0 0 0-2 2.017l.113 13.223a1.497 1.497 0 0 0 1.497 1.487h7.818l-3.066 5.368h-.973v.762h1.213a.374.374 0 0 0 .342-.217l3.326-5.913h2.568l3.325 5.913a.375.375 0 0 0 .343.217h1.212v-.762h-.972l-3.067-5.368h7.803a1.5 1.5 0 0 0 1.5-1.5V9a2 2 0 0 0-2-2H6.59zm20.22 14.823c0 .63-.511 1.142-1.142 1.142H6.619a1.143 1.143 0 0 1-1.143-1.142H26.81zm-5.714-.762v-1.524h3.81v1.524h-3.81zm5.715 0h-1.143v-1.905a.38.38 0 0 0-.381-.381h-4.572a.38.38 0 0 0-.38.38v1.906H5.475V9.26a1.5 1.5 0 0 1 1.5-1.5H25.31a1.5 1.5 0 0 1 1.5 1.5v11.8z"/>
    <path fill="#707C97" d="M7 11.19h2.286v.762H7v-.761zM10.81 11.19h5.333v.762h-5.334v-.761zM17.667 11.19h7.619v.762h-7.62v-.761zM7 13.095h9.143v.762H7v-.762zM17.667 13.095h3.81v.762h-3.81v-.762zM23 13.095h2.286v.762H23v-.762z"/>
</svg>
