<svg xmlns="http://www.w3.org/2000/svg" width="30" height="30" fill="none" viewBox="0 0 30 30">
    <g clip-path="url(#a)">
        <path fill="#707C97" fill-rule="evenodd" d="M22.4 10.192L15 3.45 3.765 13.687H6.09v13.17h4.342v-8.343h9.136v8.343h4.342v-13.17h2.325l-1.635-1.49V4.9h-2.2v5.292zm7.096 3.22a1.53 1.53 0 0 1 .399 1.692 1.529 1.529 0 0 1-1.435.983h-2.15v12.288a.882.882 0 0 1-.882.882H18.05a.882.882 0 0 1-.882-.882v-7.461h-4.336v7.461a.882.882 0 0 1-.882.882H4.572a.882.882 0 0 1-.882-.882V16.087H1.54c-.64 0-1.203-.386-1.435-.983a1.528 1.528 0 0 1 .399-1.693l13.46-12.265a1.531 1.531 0 0 1 2.072 0L20 4.759V3.5a1 1 0 0 1 1-1h5c.03 0 .058.001.087.004.375.003.694.24.819.571.06.129.094.273.094.425v7.637l2.496 2.274z" clip-rule="evenodd"/>
    </g>
    <defs>
        <clipPath id="a">
            <path fill="#fff" d="M0 0h30v30H0z"/>
        </clipPath>
    </defs>
</svg>
