<svg xmlns="http://www.w3.org/2000/svg" width="16" height="16" fill="none" viewBox="0 0 16 16">
    <g clip-path="url(#a)">
        <path fill="#707C97" d="M8 16c-2.757 0-5-2.243-5-5V3.833a.5.5 0 0 1 1 0V11c0 2.206 1.794 4 4 4s4-1.794 4-4V3.667A2.67 2.67 0 0 0 9.333 1a2.67 2.67 0 0 0-2.666 2.667v6.666a1.335 1.335 0 0 0 2.666 0v-6.5a.5.5 0 0 1 1 0v6.5A2.336 2.336 0 0 1 8 12.667a2.336 2.336 0 0 1-2.333-2.334V3.667A3.671 3.671 0 0 1 9.333 0 3.671 3.671 0 0 1 13 3.667V11c0 2.757-2.243 5-5 5z"/>
    </g>
    <defs>
        <clipPath id="a">
            <path fill="#fff" d="M0 0h16v16H0z"/>
        </clipPath>
    </defs>
</svg>
